<!-- Generated by IcoMoon.io -->
<svg version="1.1" xmlns="http://www.w3.org/2000/svg" width="39" height="32" viewBox="0 0 39 32">
<title>ep_arrow-up1</title>
<path fill="#fff" d="M0 27.429v-22.857c0-2.525 2.047-4.571 4.571-4.571h29.714c2.525 0 4.571 2.047 4.571 4.571v22.857c0 2.525-2.047 4.571-4.571 4.571h-29.714c-2.525 0-4.571-2.047-4.571-4.571z"></path>
<path fill="#fff" stroke="#2c2c2c" stroke-width="1.1429" stroke-miterlimit="4" stroke-linecap="butt" stroke-linejoin="miter" d="M11.154 16.31v0c-0.042-0.040-0.075-0.088-0.098-0.142s-0.035-0.111-0.035-0.169c0-0.058 0.012-0.116 0.035-0.169s0.056-0.101 0.098-0.142v-0l11.146-10.62c0.080-0.076 0.186-0.118 0.296-0.118 0.108 0 0.213 0.041 0.292 0.115l0.006 0.006-0 0 0.011 0.010c0.034 0.033 0.061 0.072 0.080 0.115s0.028 0.090 0.028 0.138-0.010 0.094-0.028 0.138c-0.019 0.043-0.046 0.083-0.080 0.115l-0.001 0-10.93 10.41 10.931 10.414c0.034 0.033 0.061 0.072 0.080 0.115s0.028 0.090 0.028 0.137c0 0.047-0.010 0.094-0.028 0.138s-0.046 0.083-0.080 0.115l-0-0-0.010 0.010-0.006 0.006c-0.079 0.074-0.183 0.115-0.292 0.115-0.11 0-0.216-0.042-0.296-0.118l-0-0-11.146-10.62z"></path>
</svg>
