<svg width="48" height="40" viewBox="0 0 48 40" fill="none" xmlns="http://www.w3.org/2000/svg">
<path d="M34.5497 19.095L20.6172 5.81997C20.3848 5.59836 20.0759 5.47473 19.7547 5.47473C19.4336 5.47473 19.1247 5.59836 18.8923 5.81997L18.8772 5.83497C18.7642 5.9424 18.6741 6.07172 18.6126 6.21505C18.551 6.35838 18.5193 6.51274 18.5193 6.66872C18.5193 6.8247 18.551 6.97905 18.6126 7.12239C18.6741 7.26572 18.7642 7.39504 18.8772 7.50247L31.9972 20.0025L18.8772 32.4975C18.7642 32.6049 18.6741 32.7342 18.6126 32.8776C18.551 33.0209 18.5193 33.1752 18.5193 33.3312C18.5193 33.4872 18.551 33.6416 18.6126 33.7849C18.6741 33.9282 18.7642 34.0575 18.8772 34.165L18.8922 34.18C19.1247 34.4016 19.4336 34.5252 19.7547 34.5252C20.0759 34.5252 20.3848 34.4016 20.6172 34.18L34.5497 20.905C34.6723 20.7882 34.7698 20.6478 34.8365 20.4923C34.9031 20.3367 34.9375 20.1692 34.9375 20C34.9375 19.8307 34.9031 19.6632 34.8365 19.5077C34.7698 19.3521 34.6723 19.2117 34.5497 19.095Z" fill="#2C2C2C"/>
</svg>
