<svg width="34" height="28" viewBox="0 0 34 28" fill="none" xmlns="http://www.w3.org/2000/svg">
<path d="M24.2401 13.7284L24.2401 13.7284C24.2769 13.7635 24.3061 13.8056 24.3261 13.8523C24.3461 13.8989 24.3564 13.9492 24.3564 13.9999C24.3564 14.0507 24.3461 14.101 24.3261 14.1476C24.3061 14.1943 24.2769 14.2364 24.2401 14.2714L24.2401 14.2715L14.4874 23.564L14.4873 23.564C14.4175 23.6305 14.3249 23.6676 14.2285 23.6676C14.1337 23.6676 14.0425 23.6317 13.9732 23.5673L13.9678 23.5619L13.9679 23.5618L13.9586 23.5529C13.9287 23.5245 13.9048 23.4902 13.8884 23.4521C13.8721 23.4141 13.8637 23.3732 13.8637 23.3318C13.8637 23.2904 13.8721 23.2495 13.8884 23.2115C13.9048 23.1735 13.9287 23.1392 13.9586 23.1107L13.9591 23.1103L23.1431 14.3638L23.5232 14.0018L23.1432 13.6397L13.9592 4.88969L13.9586 4.88919C13.9287 4.8607 13.9048 4.8264 13.8884 4.78839C13.8721 4.75037 13.8637 4.70944 13.8637 4.66807C13.8637 4.6267 13.8721 4.58576 13.8884 4.54775C13.9048 4.50973 13.9287 4.47543 13.9586 4.44694L13.9588 4.44706L13.9678 4.43801L13.9732 4.43261C14.0425 4.36816 14.1337 4.33227 14.2285 4.33227C14.3249 4.33227 14.4175 4.36936 14.4873 4.43585L14.4874 4.43593L24.2401 13.7284Z" fill="white" stroke="#2C2C2C"/>
</svg>
